# xmcd
#
# Track frame offsets:
#	150
#	42653
#	89199
#	123506
#	142789
#	166646
#	258668
#	285834
#	323493
#
# Disc length: 4707 seconds
#
# Revision: 1
# Processed by: cddbd v1.5.2PL0 Copyright (c) Steve Scherf et al.
# Submitted via: audiograbber 1.83.01
#
DISCID=78126109
DTITLE=Stan Webb's Chicken Shack - Live In Germany 75
DYEAR=2015
DGENRE=Blues
TTITLE0=Homework
TTITLE1=Have You Ever Loved A Woman
TTITLE2=I'm Tore Town
TTITLE3=Rain On My Window Pane
TTITLE4=Delilah
TTITLE5=Poor Boy
TTITLE6=Crying Again
TTITLE7=Dust My Broom
TTITLE8=Going Down
EXTD=
EXTT0=
EXTT1=
EXTT2=
EXTT3=
EXTT4=
EXTT5=
EXTT6=
EXTT7=
EXTT8=
PLAYORDER=
